<svg width="53" height="86" viewBox="0 0 53 86" fill="none" xmlns="http://www.w3.org/2000/svg">
<path fill-rule="evenodd" clip-rule="evenodd" d="M53 26.5C53 41.1355 41.1355 53 26.5 53C21.1478 53 16.1663 51.4133 12 48.6847V81C12 83.7614 9.76142 86 7 86H5C2.23858 86 0 83.7614 0 81V29C0 28.7435 0.0193134 28.4915 0.0565653 28.2454C0.0190501 27.6685 0 27.0865 0 26.5C0 11.8645 11.8645 0 26.5 0C41.1355 0 53 11.8645 53 26.5ZM41 26.5C41 34.5081 34.5081 41 26.5 41C18.4919 41 12 34.5081 12 26.5C12 18.4919 18.4919 12 26.5 12C34.5081 12 41 18.4919 41 26.5Z" fill="#F4F4F4"/>
<path fill-rule="evenodd" clip-rule="evenodd" d="M42 64C42 61.2386 39.7614 59 37 59H16C13.2386 59 11 61.2386 11 64V65V66C11 67.1258 11.3721 68.1647 12 69.0005V77C12 71.8 15.2 71.08 16.48 71H17H19H37C39.7614 71 42 68.7614 42 66V64Z" fill="#F4F4F4"/>
</svg>
