<svg width="287" height="305" viewBox="0 0 287 305" fill="none" xmlns="http://www.w3.org/2000/svg">
<path d="M104.912 269.47C126.391 269.47 143.823 252.037 143.823 230.558V191.646H104.912C83.4324 191.646 66 209.079 66 230.558C66 252.037 83.4324 269.47 104.912 269.47Z" fill="#0ACF83"/>
<path d="M66 152.735C66 131.256 83.4324 113.823 104.912 113.823H143.823V191.646H104.912C83.4324 191.646 66 174.214 66 152.735Z" fill="#A259FF"/>
<path d="M66 74.9116C66 53.4324 83.4324 36 104.912 36H143.823V113.823H104.912C83.4324 113.823 66 96.3908 66 74.9116Z" fill="#F24E1E"/>
<path d="M143.823 36H182.735C204.214 36 221.646 53.4324 221.646 74.9116C221.646 96.3908 204.214 113.823 182.735 113.823H143.823V36Z" fill="#FF7262"/>
<path d="M221.646 152.735C221.646 174.214 204.214 191.646 182.735 191.646C161.256 191.646 143.823 174.214 143.823 152.735C143.823 131.256 161.256 113.823 182.735 113.823C204.214 113.823 221.646 131.256 221.646 152.735Z" fill="#1ABCFE"/>
</svg>
