<svg width="54" height="50" viewBox="0 0 54 50" fill="none" xmlns="http://www.w3.org/2000/svg">
<path fill-rule="evenodd" clip-rule="evenodd" d="M26.517 10C19.712 10 15.46 13.382 13.758 20.146C16.31 16.764 19.287 15.496 22.689 16.341C24.63 16.823 26.018 18.223 27.553 19.773C30.055 22.297 32.951 25.218 39.275 25.218C46.079 25.218 50.332 21.836 52.033 15.073C49.482 18.455 46.505 19.723 43.103 18.877C41.161 18.395 39.773 16.995 38.238 15.446C35.736 12.92 32.841 10 26.517 10ZM13.758 25.218C6.954 25.218 2.701 28.6 1 35.364C3.552 31.982 6.529 30.714 9.93 31.559C11.872 32.041 13.26 33.441 14.795 34.991C17.297 37.515 20.192 40.436 26.517 40.436C33.321 40.436 37.574 37.055 39.275 30.291C36.723 33.673 33.746 34.941 30.344 34.096C28.403 33.613 27.015 32.213 25.48 30.664C22.978 28.14 20.082 25.218 13.758 25.218Z" fill="#38BDF8"/>
</svg>
